<svg width="37" height="22" viewBox="0 0 37 22" fill="none" xmlns="http://www.w3.org/2000/svg">
<path d="M6.16667 6.76923C7.0181 6.76923 7.70833 7.52688 7.70833 8.46154V20.3077C7.70833 21.2424 7.0181 22 6.16667 22C5.31523 22 4.625 21.2424 4.625 20.3077V8.46154C4.625 7.52688 5.31523 6.76923 6.16667 6.76923ZM10.7917 8.46154C11.6431 8.46154 12.3333 9.21918 12.3333 10.1538V20.3077C12.3333 21.2424 11.6431 22 10.7917 22C9.94024 22 9.25 21.2424 9.25 20.3077V10.1538C9.25 9.21918 9.94024 8.46154 10.7917 8.46154ZM15.4167 1.69231C16.2681 1.69231 16.9583 2.44999 16.9583 3.38462V20.3077C16.9583 21.2424 16.2681 22 15.4167 22C14.5652 22 13.875 21.2424 13.875 20.3077V3.38462C13.875 2.44999 14.5652 1.69231 15.4167 1.69231ZM23.125 0C28.1175 0 32.1863 4.34173 32.3687 9.77325L32.3735 10.2136C34.989 10.6235 37 13.0924 37 16.0769C37 19.2392 34.7425 21.8225 31.9002 21.9912L31.6042 22H26.2068C25.3555 22 24.6651 21.2424 24.6651 20.3077C24.665 19.4399 25.2601 18.7245 26.0269 18.6267L26.2068 18.6154L31.5211 18.6166L31.7337 18.6115C32.9533 18.5392 33.9167 17.4265 33.9167 16.0769C33.9167 14.8896 33.1677 13.8752 32.1456 13.6077L31.9378 13.5642L29.2095 13.1367L29.2901 10.1132L29.2841 9.81606C29.1287 6.34634 26.5936 3.56344 23.4327 3.39291L23.125 3.38462C22.712 3.38462 22.3059 3.42882 21.9106 3.51518L21.5818 3.59785V20.3085C21.5818 21.176 20.987 21.8908 20.2207 21.9887L20.0409 22C19.1899 22 18.5 21.2427 18.4998 20.3085L18.4985 1.35935C19.8594 0.49483 21.4395 0 23.125 0ZM1.54167 10.1538C2.3931 10.1538 3.08333 10.9115 3.08333 11.8462V18.6154C3.08333 19.55 2.3931 20.3077 1.54167 20.3077C0.690227 20.3077 0 19.55 0 18.6154V11.8462C0 10.9115 0.690227 10.1538 1.54167 10.1538Z" fill="#1C5186"/>
</svg>
