<svg width="37" height="37" viewBox="0 0 37 37" fill="none" xmlns="http://www.w3.org/2000/svg">
<path d="M18.4999 33.9167C9.98553 33.9167 3.08325 27.0144 3.08325 18.5C3.08325 9.98565 9.98553 3.08337 18.4999 3.08337C27.0142 3.08337 33.9166 9.98565 33.9166 18.5C33.9166 27.0144 27.0142 33.9167 18.4999 33.9167ZM18.4999 30.8334C25.3115 30.8334 30.8333 25.3116 30.8333 18.5C30.8333 11.6885 25.3115 6.16671 18.4999 6.16671C11.6884 6.16671 6.16659 11.6885 6.16659 18.5C6.16659 25.3116 11.6884 30.8334 18.4999 30.8334ZM13.8749 13.875H16.9583V23.125H13.8749V13.875ZM20.0416 13.875H23.1249V23.125H20.0416V13.875Z" fill="#1C5186"/>
</svg>
