<svg width="31" height="31" viewBox="0 0 31 31" fill="none" xmlns="http://www.w3.org/2000/svg">
<path d="M15.5 31C6.93958 31 0 24.0603 0 15.5C0 6.93958 6.93958 0 15.5 0C24.0603 0 31 6.93958 31 15.5C31 24.0603 24.0603 31 15.5 31ZM15.5 27.9C22.3484 27.9 27.9 22.3484 27.9 15.5C27.9 8.65167 22.3484 3.1 15.5 3.1C8.65167 3.1 3.1 8.65167 3.1 15.5C3.1 22.3484 8.65167 27.9 15.5 27.9ZM13.3639 9.94261L20.9262 14.9842C21.2111 15.174 21.2882 15.5591 21.0981 15.8439C21.0527 15.912 20.9943 15.9704 20.9262 16.0158L13.3639 21.0574C13.0791 21.2474 12.694 21.1704 12.5042 20.8855C12.4363 20.7836 12.4 20.664 12.4 20.5415V10.4585C12.4 10.1161 12.6776 9.83849 13.02 9.83849C13.1424 9.83849 13.2621 9.87471 13.3639 9.94261Z" fill="#1C5186"/>
</svg>
